<svg viewBox="0 0 12 12" width="60px" height="60px" xmlns="http://www.w3.org/2000/svg"><path fill-rule="evenodd" d="M 0,0 4,0 4,1 8,1 8,0 12,0 12,10 11,10 11,11 9,11 9,12 3,12 3,11 1,11 1,10 0,10z M 9,4 9,6 8,6 8,4z M 4,4 4,6 3,6 3,4z" fill="#3FA6DA"/><path fill-rule="evenodd" d="M 1,1 3,1 3,2 1,2z" fill="#ffffff"/><path fill-rule="evenodd" d="M 9,1 11,1 11,2 9,2z" fill="#ffffff"/><path fill-rule="evenodd" d="M 4,2 8,2 8,3 4,3z" fill="#ffffff"/><path fill-rule="evenodd" d="M 1,4 2,4 2,5 1,5z" fill="#ffffff"/><path fill-rule="evenodd" d="M 10,4 11,4 11,5 10,5z" fill="#ffffff"/><path fill-rule="evenodd" d="M 5,5 7,5 7,7 5,7z" fill="#ffffff"/><path fill-rule="evenodd" d="M 1,7 3,7 3,8 4,8 4,7 5,7 5,9 3,9 3,10 2,10 2,9 1,9z" fill="#ffffff"/><path fill-rule="evenodd" d="M 7,7 8,7 8,8 9,8 9,7 11,7 11,9 10,9 10,10 9,10 9,9 7,9z" fill="#ffffff"/><path fill-rule="evenodd" d="M 4,10 5,10 5,11 4,11z" fill="#ffffff"/><path fill-rule="evenodd" d="M 7,10 8,10 8,11 7,11z" fill="#ffffff"/></svg>